<?xml version="1.0" encoding="UTF-8" standalone="no"?>
<svg
    width="34px"
    height="34px"
    version="1.1"
    id="svg49"
    xmlns:inkscape="http://www.inkscape.org/namespaces/inkscape"
    xmlns:sodipodi="http://sodipodi.sourceforge.net/DTD/sodipodi-0.dtd"
    xmlns="http://www.w3.org/2000/svg"
    xmlns:svg="http://www.w3.org/2000/svg">
    <title
        id="title18">social_networks_v2</title>
    <g
        id="g242">
        <g
            id="Instagram-icon"
        >
            <circle
                id="circle23"
                fill="#000000"
                cx="17"
                cy="17"
                r="17" />
            <path
                d="m 18.024086,7.0007798 c 1.349932,0.00245 1.901564,0.011183 2.478581,0.033045 l 0.194408,0.00778 c 0.131739,0.00553 0.269251,0.011737 0.421576,0.01871 1.063889,0.048413 1.790476,0.2174603 2.426984,0.4642857 0.65754,0.2555555 1.214682,0.5972222 1.770635,1.1531746 0.555952,0.5555555 0.897619,1.1130952 1.153174,1.7706349 0.247223,0.635714 0.41627,1.362698 0.464683,2.426587 0.04009,0.875865 0.05502,1.262004 0.05907,2.876827 l 8.19e-4,0.450259 c 2.43e-4,0.08007 2.43e-4,0.162736 2.43e-4,0.248153 v 1.093173 c 0,0.08542 0,0.168087 -2.43e-4,0.248152 l -8.19e-4,0.45026 c -0.003,1.193565 -0.01193,1.715883 -0.03258,2.260843 l -0.0078,0.194408 c -0.0055,0.131739 -0.01174,0.269251 -0.01871,0.421576 -0.04841,1.063889 -0.21746,1.790873 -0.464683,2.426587 -0.255555,0.65754 -0.597222,1.214683 -1.153174,1.770635 -0.555556,0.555952 -1.113095,0.897619 -1.770635,1.153175 -0.635714,0.247222 -1.362699,0.416269 -2.426587,0.464682 -0.228487,0.01046 -0.423646,0.01921 -0.615985,0.02649 l -0.192528,0.0068 c -0.516928,0.01692 -1.086112,0.02406 -2.286052,0.02623 h -2.054521 c -1.19994,-0.0022 -1.769124,-0.0093 -2.286052,-0.02623 l -0.192529,-0.0068 c -0.192339,-0.0073 -0.387498,-0.01603 -0.615984,-0.02649 -1.063889,-0.04841 -1.790873,-0.21746 -2.426588,-0.464682 C 9.7912698,26.213492 9.234127,25.871825 8.6781746,25.315873 8.1222222,24.760317 7.7805556,24.202778 7.525,23.545238 7.2777778,22.909127 7.1087302,22.18254 7.0603175,21.118651 c -0.00697,-0.152325 -0.013184,-0.289837 -0.01871,-0.421576 l -0.00778,-0.194408 C 7.0119626,19.92565 7.0032319,19.374018 7.0007798,18.024086 V 15.969565 C 7.0040492,14.169655 7.0184807,13.788946 7.0603175,12.875 7.1087302,11.811111 7.2777778,11.084524 7.525,10.448413 7.7801587,9.7912698 8.1222222,9.2337302 8.6777778,8.6781746 9.2333333,8.1222222 9.790873,7.7805556 10.448413,7.525 11.084524,7.2777778 11.811111,7.1087302 12.875,7.0603175 c 0.913946,-0.041837 1.294655,-0.056268 3.094565,-0.059538 z m 0.01424,1.8011791 h -2.083012 c -1.737738,0.00312 -2.100013,0.016662 -2.998176,0.057565 C 11.98254,8.9039683 11.453175,9.0666667 11.100794,9.2035714 10.634127,9.3845238 10.301191,9.6011905 9.9511905,9.9511905 9.6015873,10.301191 9.3849206,10.634127 9.2035714,11.100794 9.0666667,11.453175 8.9039683,11.98254 8.8595238,12.957143 c -0.040902,0.898163 -0.054449,1.260438 -0.057565,2.998176 v 2.083035 c 0.00312,1.737816 0.016662,2.100329 0.057565,2.998154 0.044445,0.974603 0.2071429,1.503968 0.3440476,1.856349 0.1809524,0.466667 0.3976191,0.799603 0.7476191,1.149603 0.3500005,0.349603 0.6829365,0.56627 1.1496035,0.747619 0.352381,0.136905 0.881746,0.299603 1.856349,0.344048 0.858789,0.03912 1.227803,0.05322 2.779125,0.0571 l 0.453657,8.16e-4 c 0.08091,2.38e-4 0.164585,2.38e-4 0.25117,2.38e-4 h 1.111461 c 0.08658,0 0.170256,0 0.251169,-2.38e-4 l 0.453658,-8.16e-4 c 1.05772,-0.0026 1.565812,-0.01004 2.054264,-0.02688 l 0.195589,-0.0072 c 0.164212,-0.0065 0.334093,-0.01408 0.529272,-0.02297 0.974603,-0.04444 1.503968,-0.207143 1.856349,-0.344048 0.466667,-0.180952 0.799603,-0.397619 1.149603,-0.747619 0.349603,-0.35 0.56627,-0.682936 0.747619,-1.149603 0.136905,-0.352381 0.299603,-0.881746 0.344048,-1.856349 0.03912,-0.859112 0.05322,-1.227923 0.0571,-2.779158 l 8.16e-4,-0.453638 c 2.38e-4,-0.08091 2.38e-4,-0.164579 2.38e-4,-0.251162 v -1.111455 c 0,-0.08658 0,-0.170256 -2.38e-4,-0.25117 l -8.16e-4,-0.453657 c -0.0039,-1.551322 -0.01797,-1.920336 -0.0571,-2.779125 C 25.089682,11.98254 24.926984,11.453175 24.790079,11.100794 24.609127,10.634127 24.39246,10.301191 24.04246,9.9511905 23.69246,9.6015873 23.359524,9.3849206 22.892857,9.2035714 22.540476,9.0666667 22.011111,8.9039683 21.036508,8.8595238 20.138345,8.8186214 19.77607,8.8050749 18.038331,8.8019589 Z M 16.99682,11.863492 c 2.835318,0 5.133334,2.298413 5.133334,5.133333 0,2.834921 -2.298413,5.133334 -5.133334,5.133334 -2.83492,0 -5.133333,-2.298413 -5.133333,-5.133334 0,-2.83492 2.298016,-5.133333 5.133333,-5.133333 z m 0,1.801191 c -1.840079,0 -3.332142,1.491666 -3.332142,3.332142 0,1.84008 1.491666,3.332143 3.332142,3.332143 1.840477,0 3.332143,-1.491666 3.332143,-3.332143 0,-1.840079 -1.492063,-3.332142 -3.332143,-3.332142 z m 5.336508,-3.203969 c 0.662523,0 1.199604,0.537081 1.199604,1.199604 0,0.662522 -0.537081,1.199603 -1.199604,1.199603 -0.662522,0 -1.199603,-0.537081 -1.199603,-1.199603 0,-0.662523 0.537081,-1.199604 1.199603,-1.199604 z"
                id="path25"
                fill="#ffffff" />
        </g>
    </g>

</svg>